HIERARCHY
ROOT RootJoint
{
    OFFSET   0.000000   0.000000   0.000000
    CHANNELS 6 Xposition Yposition Zposition Xrotation Yrotation Zrotation
    JOINT pelvis_lowerback
    {
        OFFSET   0.000000   0.093605   0.000000
        CHANNELS 3 Xrotation Yrotation Zrotation
        JOINT lowerback_torso
        {
            OFFSET   0.000000   0.100000   0.000000
            CHANNELS 3 Xrotation Yrotation Zrotation
            JOINT torso_head
            {
                OFFSET   0.000000   0.282350   0.000000
                CHANNELS 3 Xrotation Yrotation Zrotation
                End Site
                {
                    OFFSET   0.000000   0.192650   0.000000
                }
            }
            JOINT rTorso_Clavicle
            {
                OFFSET  -0.001000   0.157500   0.000000
                CHANNELS 3 Xrotation Yrotation Zrotation
                JOINT rShoulder
                {
                    OFFSET  -0.117647   0.000000   0.000000
                    CHANNELS 3 Xrotation Yrotation Zrotation
                    JOINT rElbow
                    {
                        OFFSET  -0.245000   0.000000   0.000000
                        CHANNELS 3 Xrotation Yrotation Zrotation
                        JOINT rWrist
                        {
                            OFFSET  -0.240000   0.000000   0.000000
                            CHANNELS 3 Xrotation Yrotation Zrotation
                            End Site
                            {
                                OFFSET  -0.116353  -0.002500   0.000000
                            }
                        }
                    }
                }
            }
            JOINT lTorso_Clavicle
            {
                OFFSET   0.001000   0.157500   0.000000
                CHANNELS 3 Xrotation Yrotation Zrotation
                JOINT lShoulder
                {
                    OFFSET   0.117647   0.000000   0.000000
                    CHANNELS 3 Xrotation Yrotation Zrotation
                    JOINT lElbow
                    {
                        OFFSET   0.245000   0.000000   0.000000
                        CHANNELS 3 Xrotation Yrotation Zrotation
                        JOINT lWrist
                        {
                            OFFSET   0.240000   0.000000   0.000000
                            CHANNELS 3 Xrotation Yrotation Zrotation
                            End Site
                            {
                                OFFSET   0.116353  -0.002500   0.000000
                            }
                        }
                    }
                }
            }
        }
    }
    JOINT rHip
    {
        OFFSET  -0.100000  -0.051395   0.000000
        CHANNELS 3 Xrotation Yrotation Zrotation
        JOINT rKnee
        {
            OFFSET   0.000000  -0.410000   0.000000
            CHANNELS 3 Xrotation Yrotation Zrotation
            JOINT rAnkle
            {
                OFFSET   0.000000  -0.390000   0.000000
                CHANNELS 3 Xrotation Yrotation Zrotation
                JOINT rToeJoint
                {
                    OFFSET   0.000000  -0.050000   0.130000
                    CHANNELS 3 Xrotation Yrotation Zrotation
                    End Site
                    {
                        OFFSET  -0.010000   0.002000   0.060000
                    }
                }
            }
        }
    }
    JOINT lHip
    {
        OFFSET   0.100000  -0.051395   0.000000
        CHANNELS 3 Xrotation Yrotation Zrotation
        JOINT lKnee
        {
            OFFSET   0.000000  -0.410000   0.000000
            CHANNELS 3 Xrotation Yrotation Zrotation
            JOINT lAnkle
            {
                OFFSET   0.000000  -0.390000   0.000000
                CHANNELS 3 Xrotation Yrotation Zrotation
                JOINT lToeJoint
                {
                    OFFSET   0.000000  -0.050000   0.130000
                    CHANNELS 3 Xrotation Yrotation Zrotation
                    End Site
                    {
                        OFFSET   0.010000   0.002000   0.060000
                    }
                }
            }
        }
    }
}
MOTION
Frames: 10
Frame Time:   0.008333
 -2.445934   0.741057   3.922900  -4.722605  -3.478528  -0.471915  28.004131   2.130544  -3.004808 -10.456399  -0.546542  -0.845640 -10.123735   0.163272  -0.386206 -11.096443  16.672313 -13.578290  -9.250974  18.117382  10.444099  -1.409787  86.922688   1.275345   1.468770   4.998283 -10.131587 -10.257693 -13.258617  18.551271 -18.781726 -10.225094  -1.525396  -0.190101 -75.599099  -0.148477  -1.637756  -7.869221  11.146042 -39.272342   1.204759 -11.324687  76.806898   0.000211   0.009665 -29.014756 -12.488920  -0.094197  -1.074565   0.005004   0.005672 -37.493886  -0.282494   8.960649  85.904440  -0.001510   0.008924 -25.539107   4.116213   4.466714 -23.569955  -0.019207  -0.002267
 -2.442996   0.752385   3.926002  -4.836995  -3.684817  -0.362338  27.351120   2.279191  -3.178653  -9.872492  -0.621544  -0.956977 -10.025925   0.110164  -0.371007 -11.556719  16.616051 -15.052465  -9.948256  17.639817  10.204528  -1.630202  87.735806   1.505654   1.250971   5.351213 -10.343992 -10.380841 -13.307759  20.169925 -20.447314 -10.258998  -0.906464  -0.113674 -75.146517  -0.089288  -1.657730  -8.584358  11.217919 -38.020671   1.129656 -11.572837  74.702169   0.000018   0.012770 -26.578524 -12.844343   1.140539  -3.307141   0.018718   0.017331 -36.150271  -0.147329   8.380666  83.746562   0.002771   0.019105 -22.383453   4.553126   4.134524 -30.907035  -0.038489   0.012851
 -2.439973   0.765694   3.928628  -4.758676  -3.852055  -0.277230  26.606791   2.390858  -3.341085  -9.293838  -0.726252  -1.064170  -9.872364   0.057997  -0.352838 -11.997738  16.464463 -16.516751 -10.568672  17.123669   9.927783  -2.012855  88.472471   1.897959   1.024413   5.607998 -10.380444 -10.536558 -13.278598  21.766907 -22.009583 -10.240063  -0.271413  -0.054504 -74.656959  -0.044218  -1.724368  -8.985812  11.265218 -36.769720   1.004088 -11.771387  72.093607  -0.001236   0.015028 -23.707270 -13.095200   2.359976  -5.701283   0.028919   0.025800 -34.804286  -0.058928   7.777903  81.025998   0.006248   0.031311 -19.211243   4.996098   3.791097 -37.443694  -0.054753   0.017177
 -2.437033   0.780563   3.930908  -4.575131  -3.958419  -0.128711  25.860220   2.449501  -3.570645  -8.771638  -0.864224  -1.196609  -9.704962   0.007597  -0.340179 -12.433592  16.269310 -17.917190 -11.142935  16.599622   9.637843  -2.974697  89.147621   2.869065   0.793665   5.770777 -10.373917 -10.713959 -13.225660  23.306403 -23.480222 -10.216742   0.358992  -0.011656 -74.178745  -0.011832  -1.809642  -9.234130  11.332854 -35.435012   0.868927 -12.001708  69.052267  -0.003597   0.015741 -20.535344 -13.269705   3.554321  -8.159159   0.035944   0.031406 -33.714674   0.075344   7.135812  78.316781   0.005624   0.039834 -16.213411   5.433648   3.365239 -39.023576  -0.050735   0.011928
 -2.434224   0.796209   3.933140  -4.272578  -4.058709   0.057667  25.035531   2.498281  -3.837865  -8.332573  -1.006791  -1.359077  -9.530023  -0.039333  -0.335591 -12.862203  16.069595 -19.266958 -11.681034  16.093470   9.337254  -9.073642  89.768479   8.976519   0.561805   5.872512 -10.351198 -10.898098 -13.165193  24.785216 -24.859256 -10.201915   0.971633   0.019147 -73.721120   0.011413  -1.903758  -9.404400  11.402833 -34.097343   0.682554 -12.213102  65.802448  -0.004636   0.015402 -17.134111 -13.372608   4.743522 -10.841051   0.042338   0.036863 -32.658033   0.240457   6.503426  75.337771   0.003620   0.046923 -12.920392   5.842917   2.960707 -40.915219  -0.047854   0.007430
 -2.431552   0.812069   3.935435  -3.875128  -4.153313   0.266462  24.142488   2.544424  -4.120457  -7.992509  -1.146489  -1.542295  -9.358933  -0.083129  -0.336538 -13.288154  15.884943 -20.574239 -12.193923  15.615883   9.023805 -174.979098  89.652398 174.889694   0.332356   5.931641 -10.345405 -11.084998 -13.108312  26.203649 -26.153474 -10.201167   1.563908   0.041049 -73.286236   0.027962  -2.002211  -9.524829  11.483882 -32.828258   0.481065 -12.430049  62.433365  -0.005433   0.014974 -13.759065 -13.445458   5.857391 -12.394446   0.040812   0.036613 -31.594967   0.401436   5.889478  72.174518   0.001147   0.052383  -9.494574   6.206537   2.560843 -42.988671  -0.045484   0.004028
 -2.429030   0.827769   3.937844  -3.430365  -4.244543   0.479622  23.215189   2.594526  -4.403744  -7.740806  -1.277676  -1.735245  -9.196671  -0.124002  -0.340295 -13.711570  15.725040 -21.839298 -12.687728  15.171562   8.699756 -178.322975  89.121972 178.240623   0.107606   5.958932 -10.378873 -11.272292 -13.060165  27.561369 -27.369063 -10.216240   2.134536   0.056165 -72.874969   0.039417  -2.102112  -9.611026  11.585581 -31.643019   0.287309 -12.648364  59.079073  -0.006481   0.014450 -10.482250 -13.459160   6.897460 -12.454889   0.032803   0.029645 -30.548144   0.514492   5.302153  68.941530  -0.000813   0.056340  -6.004212   6.498298   2.175765 -44.834238  -0.042333   0.002684
 -2.428262   0.843226   3.941271  -3.374405  -4.349297  -1.126260  21.866103   3.166360  -2.703207  -6.788196  -1.354877  -1.763018  -8.514863  -0.199721  -0.825052 -13.239777  15.585598 -24.245712 -13.184445  14.736098   8.425686 -176.406885  89.629423 176.352335   0.025889   6.516618 -10.591722 -10.968212 -12.135490  29.434901 -28.016732  -9.715862   2.551261   0.051993 -72.476012   0.030360  -2.166231  -9.922109  11.906262 -30.166669  -0.465267 -10.661534  57.610583  -0.005074   0.003423  -8.463771 -12.906192   7.850899 -10.668022   0.014811   0.034639 -29.221263  -0.067829   6.731695  66.212187  -0.002951   0.045449  -3.083264   6.586586   1.757741 -46.891306  -0.036754  -0.002601
 -2.427963   0.859385   3.945148  -3.371727  -4.416723  -2.865307  20.483157   3.687671  -0.925147  -5.876233  -1.398881  -1.643331  -7.818412  -0.288977  -1.258733 -12.769622  15.366980 -26.567781 -13.585944  14.280899   8.124292  -6.370577  89.811327   6.338991  -0.117991   6.650229 -10.354152 -10.732394 -11.108302  31.198078 -28.564197  -9.175036   2.975913   0.048310 -72.092652   0.022766  -2.215450 -10.211969  11.726385 -28.683286  -1.244906  -8.458371  56.825094  -0.003256  -0.001948  -6.588280 -12.343031   8.721167  -9.121365   0.003675   0.037376 -27.783088  -0.638162   8.303119  63.456782  -0.004668   0.036043  -0.421342   6.793907   1.308118 -46.513122  -0.029135  -0.000802
 -2.427823   0.876078   3.949395  -3.318542  -4.487764  -4.567659  19.037801   4.158955   0.817849  -5.099535  -1.425765  -1.473265  -7.160326  -0.377847  -1.650434 -12.343951  15.103926 -28.736375 -13.947386  13.827989   7.832084  -1.416835  89.273762   1.402735  -0.283726   6.625086  -9.985570 -10.573244 -10.093524  32.839897 -29.075544  -8.640519   3.394424   0.046407 -71.723481   0.017973  -2.269985 -10.444313  11.427864 -27.235822  -1.972477  -6.259231  56.286544  -0.001766  -0.004538  -4.843296 -11.789443   9.513757  -7.717753  -0.003367   0.037797 -26.271717  -1.166371   9.851505  60.468831  -0.004501   0.029922   2.495241   7.041467   0.884688 -46.210560  -0.023248   0.000134
